<mxfile host="Electron" agent="Mozilla/5.0 (Windows NT 10.0; Win64; x64) AppleWebKit/537.36 (KHTML, like Gecko) draw.io/25.0.2 Chrome/128.0.6613.186 Electron/32.2.5 Safari/537.36" version="25.0.2">
  <diagram name="Страница — 1" id="UugEluhI2hjLua5Y2lWk">
    <mxGraphModel dx="913" dy="140" grid="1" gridSize="10" guides="1" tooltips="1" connect="1" arrows="1" fold="1" page="0" pageScale="1" pageWidth="827" pageHeight="1169" math="0" shadow="0">
      <root>
        <mxCell id="0" />
        <mxCell id="1" parent="0" />
        <mxCell id="EHShKLqP-P8v2q7kNY1X-1" value="Пользователь" style="shape=umlActor;verticalLabelPosition=bottom;verticalAlign=top;html=1;outlineConnect=0;" parent="1" vertex="1">
          <mxGeometry x="339" y="435" width="30" height="59" as="geometry" />
        </mxCell>
        <mxCell id="EHShKLqP-P8v2q7kNY1X-9" value="1: нажимает на кнопку &quot;Личный счет&quot; в меню;" style="text;html=1;align=center;verticalAlign=middle;resizable=0;points=[];autosize=1;strokeColor=none;fillColor=none;" parent="1" vertex="1">
          <mxGeometry x="365" y="530" width="280" height="30" as="geometry" />
        </mxCell>
        <mxCell id="EHShKLqP-P8v2q7kNY1X-11" value="2: отправляет запрос в БД для получения данных о пользователе;" style="text;html=1;align=center;verticalAlign=middle;resizable=0;points=[];autosize=1;strokeColor=none;fillColor=none;" parent="1" vertex="1">
          <mxGeometry x="705" y="530" width="390" height="30" as="geometry" />
        </mxCell>
        <mxCell id="EHShKLqP-P8v2q7kNY1X-12" value="" style="endArrow=classic;html=1;rounded=0;entryX=-0.049;entryY=0.544;entryDx=0;entryDy=0;entryPerimeter=0;exitX=1;exitY=0.5;exitDx=0;exitDy=0;" parent="1" source="EHShKLqP-P8v2q7kNY1X-91" target="EHShKLqP-P8v2q7kNY1X-92" edge="1">
          <mxGeometry width="50" height="50" relative="1" as="geometry">
            <mxPoint x="375" y="560" as="sourcePoint" />
            <mxPoint x="690" y="560" as="targetPoint" />
            <Array as="points">
              <mxPoint x="615" y="560" />
            </Array>
          </mxGeometry>
        </mxCell>
        <mxCell id="EHShKLqP-P8v2q7kNY1X-13" value="" style="endArrow=classic;html=1;rounded=0;entryX=0;entryY=0.5;entryDx=0;entryDy=0;" parent="1" target="EHShKLqP-P8v2q7kNY1X-95" edge="1">
          <mxGeometry width="50" height="50" relative="1" as="geometry">
            <mxPoint x="704.5" y="560" as="sourcePoint" />
            <mxPoint x="958.78" y="560.21" as="targetPoint" />
          </mxGeometry>
        </mxCell>
        <mxCell id="EHShKLqP-P8v2q7kNY1X-14" value="" style="endArrow=classic;html=1;rounded=0;exitX=0;exitY=0.5;exitDx=0;exitDy=0;entryX=1;entryY=0.5;entryDx=0;entryDy=0;" parent="1" source="EHShKLqP-P8v2q7kNY1X-97" target="EHShKLqP-P8v2q7kNY1X-94" edge="1">
          <mxGeometry width="50" height="50" relative="1" as="geometry">
            <mxPoint x="954.5" y="656.5" as="sourcePoint" />
            <mxPoint x="704.5" y="656.5" as="targetPoint" />
          </mxGeometry>
        </mxCell>
        <mxCell id="EHShKLqP-P8v2q7kNY1X-15" value="3: возвращает данные о пользователе;" style="text;whiteSpace=wrap;html=1;" parent="1" vertex="1">
          <mxGeometry x="780" y="626.5" width="290" height="40" as="geometry" />
        </mxCell>
        <mxCell id="EHShKLqP-P8v2q7kNY1X-66" value="&lt;span style=&quot;text-align: left;&quot;&gt;Бот&lt;/span&gt;" style="rounded=0;whiteSpace=wrap;html=1;" parent="1" vertex="1">
          <mxGeometry x="659.5" y="479.5" width="80" height="30" as="geometry" />
        </mxCell>
        <mxCell id="EHShKLqP-P8v2q7kNY1X-67" value="&lt;span style=&quot;text-align: left;&quot;&gt;БД&lt;/span&gt;" style="rounded=0;whiteSpace=wrap;html=1;" parent="1" vertex="1">
          <mxGeometry x="1073" y="483" width="80" height="30" as="geometry" />
        </mxCell>
        <mxCell id="EHShKLqP-P8v2q7kNY1X-74" value="" style="endArrow=none;dashed=1;html=1;rounded=0;entryX=0.5;entryY=0;entryDx=0;entryDy=0;" parent="1" source="xlZcNy2rsn0xKCPuJmCu-1" edge="1">
          <mxGeometry width="50" height="50" relative="1" as="geometry">
            <mxPoint x="356" y="511" as="sourcePoint" />
            <mxPoint x="356" y="718.5" as="targetPoint" />
          </mxGeometry>
        </mxCell>
        <mxCell id="EHShKLqP-P8v2q7kNY1X-75" value="" style="endArrow=none;dashed=1;html=1;rounded=0;exitX=0.5;exitY=1;exitDx=0;exitDy=0;entryX=0.5;entryY=0;entryDx=0;entryDy=0;" parent="1" source="EHShKLqP-P8v2q7kNY1X-66" edge="1">
          <mxGeometry width="50" height="50" relative="1" as="geometry">
            <mxPoint x="788.14" y="509.5" as="sourcePoint" />
            <mxPoint x="700.0000000000005" y="716" as="targetPoint" />
          </mxGeometry>
        </mxCell>
        <mxCell id="EHShKLqP-P8v2q7kNY1X-92" value="" style="rounded=0;whiteSpace=wrap;html=1;" parent="1" vertex="1">
          <mxGeometry x="694.5" y="522" width="10" height="70" as="geometry" />
        </mxCell>
        <mxCell id="EHShKLqP-P8v2q7kNY1X-94" value="" style="rounded=0;whiteSpace=wrap;html=1;" parent="1" vertex="1">
          <mxGeometry x="694.5" y="622" width="10" height="70" as="geometry" />
        </mxCell>
        <mxCell id="EHShKLqP-P8v2q7kNY1X-96" value="" style="endArrow=none;dashed=1;html=1;rounded=0;entryX=0.5;entryY=0;entryDx=0;entryDy=0;exitX=0.5;exitY=1;exitDx=0;exitDy=0;" parent="1" source="EHShKLqP-P8v2q7kNY1X-67" target="EHShKLqP-P8v2q7kNY1X-95" edge="1">
          <mxGeometry width="50" height="50" relative="1" as="geometry">
            <mxPoint x="1196.6399999999999" y="513" as="sourcePoint" />
            <mxPoint x="1196.6399999999999" y="804.142839704241" as="targetPoint" />
          </mxGeometry>
        </mxCell>
        <mxCell id="EHShKLqP-P8v2q7kNY1X-95" value="" style="rounded=0;whiteSpace=wrap;html=1;" parent="1" vertex="1">
          <mxGeometry x="1108" y="525" width="10" height="70" as="geometry" />
        </mxCell>
        <mxCell id="EHShKLqP-P8v2q7kNY1X-98" value="" style="endArrow=none;dashed=1;html=1;rounded=0;" parent="1" source="EHShKLqP-P8v2q7kNY1X-95" edge="1">
          <mxGeometry width="50" height="50" relative="1" as="geometry">
            <mxPoint x="1113" y="595" as="sourcePoint" />
            <mxPoint x="1113" y="720" as="targetPoint" />
          </mxGeometry>
        </mxCell>
        <mxCell id="EHShKLqP-P8v2q7kNY1X-97" value="" style="rounded=0;whiteSpace=wrap;html=1;" parent="1" vertex="1">
          <mxGeometry x="1108" y="622.5" width="10" height="70" as="geometry" />
        </mxCell>
        <mxCell id="xlZcNy2rsn0xKCPuJmCu-2" value="" style="endArrow=none;dashed=1;html=1;rounded=0;entryX=0.5;entryY=0;entryDx=0;entryDy=0;" parent="1" target="xlZcNy2rsn0xKCPuJmCu-1" edge="1">
          <mxGeometry width="50" height="50" relative="1" as="geometry">
            <mxPoint x="356" y="511" as="sourcePoint" />
            <mxPoint x="356" y="719" as="targetPoint" />
          </mxGeometry>
        </mxCell>
        <mxCell id="xlZcNy2rsn0xKCPuJmCu-1" value="" style="rounded=0;whiteSpace=wrap;html=1;" parent="1" vertex="1">
          <mxGeometry x="351" y="622.5" width="10" height="69" as="geometry" />
        </mxCell>
        <mxCell id="xlZcNy2rsn0xKCPuJmCu-3" value="" style="endArrow=classic;html=1;rounded=0;exitX=0;exitY=0.5;exitDx=0;exitDy=0;entryX=1;entryY=0.5;entryDx=0;entryDy=0;" parent="1" source="EHShKLqP-P8v2q7kNY1X-94" target="xlZcNy2rsn0xKCPuJmCu-1" edge="1">
          <mxGeometry width="50" height="50" relative="1" as="geometry">
            <mxPoint x="671" y="656.44" as="sourcePoint" />
            <mxPoint x="361" y="656.44" as="targetPoint" />
          </mxGeometry>
        </mxCell>
        <mxCell id="xlZcNy2rsn0xKCPuJmCu-4" value="4: отображает сообщение с результатом;" style="text;html=1;align=center;verticalAlign=middle;resizable=0;points=[];autosize=1;strokeColor=none;fillColor=none;" parent="1" vertex="1">
          <mxGeometry x="414" y="626.5" width="250" height="30" as="geometry" />
        </mxCell>
        <mxCell id="EHShKLqP-P8v2q7kNY1X-91" value="" style="rounded=0;whiteSpace=wrap;html=1;" parent="1" vertex="1">
          <mxGeometry x="351" y="526" width="10" height="69" as="geometry" />
        </mxCell>
      </root>
    </mxGraphModel>
  </diagram>
</mxfile>
